# xmcd
#
# Track frame offsets:
#	182
#	14520
#	39547
#	59160
#	87475
#	106290
#	118307
#	141907
#	174587
#	196327
#	215875
#	230817
#	264117
#	285665
#	306475
#
# Disc length: 4711 seconds
#
# Revision: 1
# Processed by: cddbd v1.5PL3 Copyright (c) Steve Scherf et al.
# Submitted via: EasyCDDAExtractor 5.0.6
#
DISCID=ef12650f
DTITLE=Schwarz, Brinsley - Brinsley Schwarz - Despite It All
DYEAR=1970
DGENRE=
TTITLE0=Hymn To Me
TTITLE1=Shining Brightly
TTITLE2=Rock And Roll Women
TTITLE3=Lady Constant
TTITLE4=What Do You Suggest?
TTITLE5=Mayfly
TTITLE6=Ballad Of A Has Been Beauty Queen
TTITLE7=Country Girl
TTITLE8=Th Slow Tune
TTITLE9=Funk Angel
TTITLE10=Piece Of Home
TTITLE11=Love Song
TTITLE12=Star Ship
TTITLE13=Ebury Down
TTITLE14=Old JArrow
EXTD=
EXTT0=
EXTT1=
EXTT2=
EXTT3=
EXTT4=
EXTT5=
EXTT6=
EXTT7=
EXTT8=
EXTT9=
EXTT10=
EXTT11=
EXTT12=
EXTT13=
EXTT14=
PLAYORDER=
